
<svg xmlns="http://www.w3.org/2000/svg" version="1.1" xmlns:xlink="http://www.w3.org/1999/xlink" preserveAspectRatio="none" x="0px" y="0px" width="640px" height="480px" viewBox="0 0 640 480">
<defs>
<g id="Layer0_0_FILL">
<path fill="#FFFFFF" stroke="none" d="
M 633.95 77.05
Q 633.95 47.9 613.35 27.3 592.75 6.7 563.6 6.7
L 77.05 6.7
Q 47.9 6.7 27.3 27.3 6.7 47.9 6.7 77.05
L 6.7 335.15
Q 6.7 364.3 27.3 384.9 47.9 405.5 77.05 405.5
L 232.35 405.5
Q 234.9798828125 439.840625 210.6 464.3
L 211.35 466.55
Q 275.2705078125 447.7173828125 300.25 405.5
L 563.6 405.5
Q 592.75 405.5 613.35 384.9 633.95 364.3 633.95 335.15
L 633.95 77.05 Z"/>
</g>

<path id="Layer0_0_1_STROKES" stroke="#333333" stroke-width="4.34" stroke-linejoin="round" stroke-linecap="round" fill="none" d="
M 210.6 464.3
Q 234.9798828125 439.840625 232.35 405.5
L 77.05 405.5
Q 47.9 405.5 27.3 384.9 6.7 364.3 6.7 335.15
L 6.7 77.05
Q 6.7 47.9 27.3 27.3 47.9 6.7 77.05 6.7
L 563.6 6.7
Q 592.75 6.7 613.35 27.3 633.95 47.9 633.95 77.05
L 633.95 335.15
Q 633.95 364.3 613.35 384.9 592.75 405.5 563.6 405.5
L 300.275 405.5
Q 275.2705078125 447.7173828125 211.35 466.55"/>
</defs>

<g id="Layer_1">
<g transform="matrix( 1, 0, 0, 1, 0,0) ">
<use xlink:href="#Layer0_0_FILL"/>

<use xlink:href="#Layer0_0_1_STROKES"/>
</g>
</g>
</svg>
